<?xml version="1.0" encoding="iso-8859-1"?>
<svg version="1.1" id="Capa_1" xmlns="http://www.w3.org/2000/svg" xmlns:xlink="http://www.w3.org/1999/xlink" x="0px" y="0px"
	 viewBox="0 0 512 512" style="enable-background:new 0 0 512 512;" xml:space="preserve">
<path style="fill:#F3D2A2;" d="M469.35,419.7c0-35.3-44.6-92.4-99.6-92.4c-0.3,0-0.6,0-0.8,0C361.85,195.6,308.95,0,256.05,0
	c-52,0-104,194.7-112.5,327.3c-0.4,0-0.9-0.1-1.3-0.1c-55,0-99.6,57.1-99.6,92.4c0,33.1,74.8,47.8,131,72.9
	c17.9,15.6,44.5,19.5,82.3,19.5c32,0,56-3.8,73.6-15.4C386.45,469.1,469.35,454.5,469.35,419.7"/>
<g>
	<path style="fill:#C68F6A;" d="M369.85,426.8c7.7-1.4,29.9-34.4,29.9-58c0-30.1-8.2-38.4-18.2-40.7c-3.8-0.9-7.8-0.9-11.8-0.9
		c0,14.2,1.9,28.4,1.9,46.6C371.75,412.5,362.05,428.2,369.85,426.8z"/>
	<path style="fill:#C68F6A;" d="M110.75,368.8c0,23.6,22.2,56.6,29.9,58s-1.9-14.2-1.9-52.9c0-18.2,1.9-32.4,1.9-46.6l0,0
		c-4.7,0-9.6,0-14,1.5C117.75,331.7,110.75,340.9,110.75,368.8z"/>
</g>
<g>
	<path style="fill:#662113;" d="M128.05,446.4c-22.2-6.5-43.6-3.2-53.5,7.1c25.7,12.7,62.5,23.4,94.4,37.1
		C173.75,474.1,155.45,454.3,128.05,446.4z"/>
	<path style="fill:#662113;" d="M343.05,490.6L343.05,490.6c31.9-13.7,68.7-24.4,94.4-37.1c-9.8-10.3-31.2-13.6-53.5-7.1
		C356.55,454.3,338.25,474.2,343.05,490.6z"/>
</g>
</svg>
